<svg width="81" height="30" viewBox="0 0 81 30" fill="none" xmlns="http://www.w3.org/2000/svg">
<rect x="12" y="1" width="1" height="1" fill="black"/>
<rect x="11" y="2" width="1" height="2" fill="black"/>
<rect x="9" y="4" width="2" height="1" fill="black"/>
<rect x="7" y="5" width="2" height="1" fill="black"/>
<rect x="5" y="6" width="2" height="1" fill="black"/>
<rect x="3" y="7" width="2" height="1" fill="black"/>
<rect x="1" y="8" width="2" height="1" fill="black"/>
<rect y="9" width="1" height="1" fill="black"/>
<rect x="1" y="9" width="11" height="1" fill="black"/>
<rect x="12" y="28" width="1" height="1" fill="black"/>
<rect x="11" y="10" width="1" height="18" fill="black"/>
<rect width="1" height="1" transform="matrix(-1 0 0 1 80 1)" fill="black"/>
<rect width="1" height="1" transform="matrix(-1 0 0 1 80 28)" fill="black"/>
<rect width="1" height="26" transform="matrix(-1 0 0 1 81 2)" fill="black"/>
<rect x="13" width="66" height="1" fill="black"/>
<rect x="13" y="29" width="66" height="1" fill="black"/>
<path d="M13 1H79V29H13V1Z" fill="#F5F5F5"/>
<path d="M79 2H80V28H79V2Z" fill="#F5F5F5"/>
<path d="M12 2H13V28H12V2Z" fill="#F5F5F5"/>
<path d="M3 8H12V9H3V8Z" fill="#F5F5F5"/>
<path d="M5 7H12V8H5V7Z" fill="#F5F5F5"/>
<path d="M7 6H12V7H7V6Z" fill="#F5F5F5"/>
<path d="M9 5H12V6H9V5Z" fill="#F5F5F5"/>
<path d="M11 4H12V5H11V4Z" fill="#F5F5F5"/>
</svg>
